<svg xmlns="http://www.w3.org/2000/svg" width="1000" height="1150" viewBox="0 0 1000 1150" role="img">
  <title>Unofficial substitute hex sticker</title>
  <metadata>Generated as an unofficial/original substitute artwork; not an official package logo.</metadata>
  <defs>
    <linearGradient id="bg" x1="0" x2="1" y1="0" y2="1"><stop offset="0%" stop-color="#2B6CB0"/><stop offset="100%" stop-color="#4299E1"/></linearGradient>
    <filter id="shadow" x="-20%" y="-20%" width="140%" height="140%"><feDropShadow dx="16" dy="18" stdDeviation="8" flood-opacity="0.28"/></filter>
    <style>text{font-family:Inter,Lato,DejaVu Sans,Arial,sans-serif;font-weight:800} .mono{font-family:DejaVu Sans Mono,monospace;font-weight:800}</style>
  </defs>
  <polygon points="500.0,62.0 938.0,333.5 938.0,816.5 500.0,1088.0 62.0,816.5 62.0,333.5" fill="url(#bg)" stroke="#F6AD55" stroke-width="22" filter="url(#shadow)"/>
  <polygon points="500.0,88.0 912.0,333.5 912.0,816.5 500.0,1062.0 88.0,816.5 88.0,333.5" fill="none" stroke="#FFFFFF" stroke-width="5" opacity="0.85"/>
  <rect x="250" y="270" width="500" height="515" rx="30" fill="#fff" stroke="#223a60" stroke-width="9"/>
  <rect x="315" y="365" width="370" height="245" rx="14" fill="#F5F8FF" stroke="#2B6CB0" stroke-width="7"/>
  <path d="M360 410V560H640" fill="none" stroke="#223a60" stroke-width="6" stroke-linecap="round"/>
  <rect x="385" y="490" width="40" height="70" rx="5" fill="#2B6CB0"/><rect x="445" y="455" width="40" height="105" rx="5" fill="#2B6CB0"/><rect x="505" y="510" width="40" height="50" rx="5" fill="#2B6CB0"/><rect x="565" y="425" width="40" height="135" rx="5" fill="#2B6CB0"/>
  <path d="M385 510L445 475L505 525L565 430L625 450" fill="none" stroke="#f6ad55" stroke-width="8" stroke-linecap="round" stroke-linejoin="round"/>
  <rect x="320" y="655" width="320" height="14" rx="6" fill="#223a60" opacity="0.35"/><rect x="320" y="690" width="360" height="14" rx="6" fill="#223a60" opacity="0.35"/><rect x="320" y="725" width="260" height="14" rx="6" fill="#223a60" opacity="0.35"/>
  <path d="M720 275L744 335L808 338L758 376L774 438L720 402L666 438L682 376L632 338L696 335Z" fill="#f6ad55"/>
  <text x="500" y="855" fill="#fff" font-size="37" text-anchor="middle">publication-ready plots</text>
  <text x="500" y="958" fill="#FFFFFF" font-size="92" text-anchor="middle" stroke="#000000" stroke-opacity="0.22" stroke-width="3">ggpubr</text>
</svg>
