<svg xmlns="http://www.w3.org/2000/svg" width="1000" height="1150" viewBox="0 0 1000 1150" role="img">
  <title>Unofficial substitute hex sticker</title>
  <metadata>Generated as an unofficial/original substitute artwork; not an official package logo.</metadata>
  <defs>
    <linearGradient id="bg" x1="0" x2="1" y1="0" y2="1"><stop offset="0%" stop-color="#006D77"/><stop offset="100%" stop-color="#008E9B"/></linearGradient>
    <filter id="shadow" x="-20%" y="-20%" width="140%" height="140%"><feDropShadow dx="16" dy="18" stdDeviation="8" flood-opacity="0.28"/></filter>
    <style>text{font-family:Inter,Lato,DejaVu Sans,Arial,sans-serif;font-weight:800} .mono{font-family:DejaVu Sans Mono,monospace;font-weight:800}</style>
  </defs>
  <polygon points="500.0,62.0 938.0,333.5 938.0,816.5 500.0,1088.0 62.0,816.5 62.0,333.5" fill="url(#bg)" stroke="#E9C46A" stroke-width="22" filter="url(#shadow)"/>
  <polygon points="500.0,88.0 912.0,333.5 912.0,816.5 500.0,1062.0 88.0,816.5 88.0,333.5" fill="none" stroke="#FFFFFF" stroke-width="5" opacity="0.85"/>
  <rect x="210" y="300" width="580" height="460" rx="36" fill="#fff" opacity="0.94" stroke="#e9c46a" stroke-width="12"/>
  <path d="M500 382L355 505L305 645M355 505L405 645M500 382L500 505L500 645M500 382L645 505L595 645M645 505L695 645" fill="none" stroke="#223a40" stroke-width="6" stroke-linecap="round"/>
  <circle cx="500" cy="382" r="37" fill="#e9c46a" stroke="#223a40" stroke-width="5"/>
  <circle cx="355" cy="505" r="37" fill="#006D77" stroke="#223a40" stroke-width="5"/><circle cx="500" cy="505" r="37" fill="#006D77" stroke="#223a40" stroke-width="5"/><circle cx="645" cy="505" r="37" fill="#006D77" stroke="#223a40" stroke-width="5"/>
  <circle cx="305" cy="645" r="30" fill="#fff" stroke="#223a40" stroke-width="5"/><circle cx="405" cy="645" r="30" fill="#fff" stroke="#223a40" stroke-width="5"/><circle cx="500" cy="645" r="30" fill="#fff" stroke="#223a40" stroke-width="5"/><circle cx="595" cy="645" r="30" fill="#fff" stroke="#223a40" stroke-width="5"/><circle cx="695" cy="645" r="30" fill="#fff" stroke="#223a40" stroke-width="5"/>
  <rect x="275" y="705" width="450" height="85" rx="25" fill="#223a40"/>
  <text class="mono" x="500" y="763" fill="#fff" font-size="45" text-anchor="middle">y ~ x + (1|g)</text>
  <text x="500" y="846" fill="#fff" font-size="39" text-anchor="middle">mixed effects</text>
  <text x="500" y="958" fill="#FFFFFF" font-size="92" text-anchor="middle" stroke="#000000" stroke-opacity="0.22" stroke-width="3">lme4</text>
</svg>
